<?xml version="1.0" encoding="UTF-8" standalone="no"?><!DOCTYPE svg PUBLIC "-//W3C//DTD SVG 1.1//EN" "http://www.w3.org/Graphics/SVG/1.1/DTD/svg11.dtd"><svg width="100%" height="100%" viewBox="0 0 240 240" version="1.1" xmlns="http://www.w3.org/2000/svg" xmlns:xlink="http://www.w3.org/1999/xlink" xml:space="preserve"><circle cx="111.5" cy="111.5" r="98.616" style="fill:#e1d599;"/><path d="M99.009,146.804c1.15,-2.016 3.337,-5.895 4.559,-11.204c0.087,-0.38 0.283,-1.423 0.418,-2.756c-0.783,0.214 -1.597,0.426 -1.74,0.463c-15.85,4.129 -32.073,4.555 -43.381,7.28c-1.339,0.96 -3.852,4.348 -7.471,6.981c-1.075,0.783 -1.099,0.746 -5.004,3.238c-1.449,-4.229 -1.372,-4.263 -1.763,-4.924c-0.632,-1.068 -1.581,-1.845 -2.708,-3.12c-0.096,-0.009 -0.188,-0.018 -0.277,-0.027c-0.875,0.956 -1.87,1.665 -3.481,2.564c-2.535,1.414 -2.523,1.431 -6.802,3.896c-0.374,-5.708 -0.326,-5.71 -0.551,-7.851c-0.293,-2.778 -0.818,-5.385 -1.421,-6.636c-0.916,-0.55 -2.446,-1.711 -4.539,-4.908c-3.028,-4.625 -5.908,-11.547 -7.122,-14.32c1.145,-1.645 1.183,-1.623 1.344,-1.989c0.855,-1.934 -3.565,-6.386 -4.121,-12.567c-0.046,-0.511 -0.609,-4.792 2.565,-10.072c5.92,-9.846 17.13,-8.333 20.517,-7.792c4.593,-0.31 15.032,-5.857 20.789,-8.881c3.448,-7.796 3.783,-10.464 5.207,-14.43c1.002,-2.793 2.213,-4.729 4.385,-6.416c0.117,-1.553 -0.67,-3.183 -3.52,-4.419c-0.899,-0.39 -1.253,-0.382 -1.502,-0.795c-0.153,-0.254 -0.383,-1.178 0.7,-1.457c6.573,-1.69 15.894,-14.08 24.122,-43.759c0.02,-0.069 0.202,-0.727 0.267,-0.862c0.533,-1.102 2.078,-1.252 2.814,-0.274c0.334,0.445 0.332,0.97 0.331,1.058c-0.009,1.723 -0.274,7.96 -0.303,8.652c-0.356,8.381 -0.794,15.335 -1.095,21.886c-0.175,3.812 -0.478,8.354 -0.574,12.637c7.843,-1.715 16.239,-3.206 19.428,-3.176c6.271,0.059 6.942,2.584 11.118,4.887c0.633,0.349 2.44,1.139 4.744,2.745c2.596,-12.156 4.598,-29.398 5.006,-45.492c0.001,-0.067 0.018,-0.711 0.045,-0.841c0.244,-1.19 1.768,-1.605 2.584,-0.705c0.32,0.353 0.394,0.85 0.494,1.266c5.781,24.14 8.188,44.226 15.922,46.685c0.518,0.164 1.011,0.193 1.418,0.671c0.639,0.751 0.494,2.104 -0.722,2.544c-0.839,0.304 -5.141,1.421 -4.693,4.37c0.318,2.095 2.715,4.221 2.881,4.443c0.613,0.816 0.007,2 -1.004,1.988c-3.514,-0.042 -6.652,-0.626 -9.558,1.242c0.886,2.223 1.662,4.698 2.28,7.452c0.676,3.01 1.003,5.681 1.173,7.476l0.004,0.036c2.213,2.151 4.188,4.35 5.946,6.557c0.5,-0.174 1.032,-0.281 1.587,-0.308l35.998,-1.805c3.133,-0.157 5.803,2.259 5.96,5.391l0.285,5.683l18.068,2.857c3.097,0.49 5.215,3.403 4.725,6.501l-0.858,5.424c7.28,4.453 17.712,12.709 21.993,26.938c0.751,2.498 4.095,14.473 -1.055,25.882c-0.765,1.695 -4.183,9.336 -13.851,15.255c-1.687,1.033 -6.857,4.01 -14.8,5.929c2.23,1.645 4.516,3.398 6.878,5.295c-0.983,1.237 -2.157,2.634 -3.185,3.835c-3.12,0.651 -4.138,3.107 -4.401,4.849l-3.456,3.483c-8.537,7.069 -19.447,14.957 -28.111,20.682c-2.497,1.351 -5.095,2.667 -7.704,3.858c-9.467,-12.356 -20.334,-23.115 -28.883,-34.421c-2.068,3.574 -4.797,8.135 -8.392,13.861c-6.286,10.013 -8.196,12.558 -8.979,13.6c-3.941,5.249 -8.301,11.757 -10.717,18.535c-1.909,-0.055 -3.813,-0.152 -5.709,-0.293l-18.673,-2.785c-0.529,-0.119 -1.057,-0.242 -1.584,-0.368l-33.616,-13.281c-1.766,-1.004 -3.507,-2.05 -5.223,-3.136c1.643,-4.478 4.398,-10.915 9.064,-18.995c0.434,-0.751 4.962,-9.006 14.2,-20.053c0.709,-0.848 4.871,-5.826 9.351,-10.168c2.408,-2.335 11.641,-10.304 18.245,-17.228c0.858,-0.9 4.012,-4.765 5.037,-6.223c0.018,-0.026 0.06,-0.082 0.084,-0.116c0.016,-0.021 0.024,-0.033 0.013,-0.022Zm-0.013,0.022c0.003,-0.007 0.005,-0.014 0.01,-0.019l0.003,-0.003l-0.013,0.022Z" style="fill:#001722;"/><path d="M74.493,67.954c0.975,0.088 1.668,1.466 1.545,3.075c-0.123,1.609 -1.014,2.843 -1.99,2.755c-0.975,-0.088 -1.668,-1.466 -1.545,-3.075c0.123,-1.609 1.014,-2.844 1.99,-2.755Zm25.472,2.012c1.175,-0.146 2.263,1.035 2.43,2.634c0.167,1.6 -0.651,3.016 -1.825,3.162c-1.174,0.145 -2.263,-1.036 -2.43,-2.635c-0.167,-1.6 0.651,-3.016 1.825,-3.161Z" style="fill:#e0a717;"/><path d="M111.735,46.611c2.673,0.676 3.319,2.476 7.768,4.686c1.193,0.593 2.331,1.265 3.412,2.014c0.049,1.91 0.039,3.678 -0.036,5.278c-0.994,3.223 -2.029,5.627 -3.063,6.944c-0.452,0.576 -0.295,0.899 -0.032,1.096c0.238,0.178 0.7,0.25 1.139,-0.289c0.219,-0.269 0.393,-0.521 0.428,-0.571c0.242,-0.35 0.481,-0.739 0.716,-1.163c3.537,-6.383 6.163,-20.504 6.642,-23.079c1.859,-9.977 2.924,-19.297 3.523,-26.093c2.724,13.474 4.581,23.731 7.845,30.716c1.751,3.746 3.595,5.805 5.286,6.978c-0.893,0.583 -1.772,1.342 -2.39,2.314c-1.819,2.861 -0.409,5.687 1.048,7.533c-4.995,0.194 -7.868,0.958 -11.784,6.669c-0.112,0.162 -0.162,0.234 -0.217,0.328c-0.128,0.216 -0.088,0.59 0.198,0.795c0.279,0.201 0.693,0.186 1.003,-0.152c0.019,-0.021 0.528,-0.681 1.29,-1.512c2.026,5.567 3.067,12.041 3.067,19.168c-0,2.646 -0.172,5.13 -0.501,7.464l-12.669,3.394c-3.03,0.812 -4.83,3.931 -4.018,6.96l3.586,13.383c-18.117,14.591 -49.779,13.618 -66.165,17.77c-2.092,0.53 -4.831,5.247 -9.545,8.222c-0.858,-2.602 -3.244,-4.181 -4.594,-6.088c0,-0 -2.615,-0.096 -3.502,-0.495c-1.548,2.454 -2.61,2.684 -5.683,4.469c-0.36,-5.755 -1.529,-10.75 -2.977,-11.461c-3.662,-1.798 -8.111,-12.171 -9.792,-16.015c0.015,0.009 0.851,0.275 2.056,0.634c0.039,0.944 0.177,2.086 0.487,3.426c0.411,1.777 1.329,4.354 2.987,6.038c0.206,0.209 0.211,0.202 1.558,1.421c1.569,-4.364 1.614,-4.348 3.035,-8.762l0.008,-0.024c2.203,0.477 4.651,0.924 7.171,1.238c0.597,0.075 2.611,0.241 4.205,0.348c0.003,0.167 0.009,0.352 0.02,0.57c0.027,0.567 0.14,2.976 1.486,5.567c1.351,2.6 3.142,3.906 3.965,4.643c0.082,-0.134 2.995,-4.652 4.512,-8.396c0.542,-1.338 0.83,-2.351 0.987,-3.165c0.982,-0.175 1.995,-0.371 3.038,-0.588c0.75,-0.155 1.915,2.81 2.695,2.634c0.665,-0.15 0.942,-3.439 1.628,-3.603c3.767,-0.898 7.846,-1.998 12.18,-3.23c0.616,-0.175 1.857,2.484 2.482,2.304c0.653,-0.188 0.691,-3.215 1.354,-3.408c1.149,-0.334 2.314,-0.675 3.494,-1.023c0.631,-0.186 7.753,-2.307 7.885,-2.352c0.644,-0.22 1.136,-0.67 1.483,-1.003c-0.774,-0.065 -1.362,-0.207 -2.855,0.167c-18.023,4.502 -27.146,6.478 -34.175,7.342c-0.352,2.885 -2.866,7.186 -4.993,10.615c-3.477,-3.072 -4.58,-7.518 -4.546,-10.369c-4.061,-0.397 -8.387,-1.336 -12.134,-2.334c-0.759,2.326 -2.183,6.026 -3.377,9.209c-2.62,-2.331 -4.186,-8.581 -3.969,-11.432c-0.755,-0.258 -1.38,-0.483 -1.845,-0.657c-0.958,-4.374 -6.211,-9.086 -3.261,-16.513c3.337,-8.403 10.709,-9.934 18.543,-8.599c0.975,-0 2.174,-0.218 3.514,-0.593c3.582,1.332 9.259,3.21 18.208,5.218c0.291,0.066 3.793,0.812 3.936,0.842c0.318,0.065 0.455,0.019 0.497,-0.142c0.059,-0.229 -0.127,-0.321 -0.363,-0.378c-0.256,-0.063 -10.048,-2.517 -19.493,-6.455c0.231,-0.086 0.464,-0.174 0.7,-0.265c5.052,1.735 11.214,3.427 19.118,5.139c0.315,0.068 0.435,-0.063 0.468,-0.21c0.047,-0.206 -0.085,-0.348 -0.321,-0.405c-0.008,-0.002 -0.008,-0.001 -0.521,-0.137c-6.739,-1.782 -12.178,-3.526 -16.673,-5.229c1.372,-0.584 2.776,-1.227 4.158,-1.888c5.055,1.737 11.222,3.431 19.135,5.145c0.17,0.037 0.345,-0.026 0.395,-0.233c0.039,-0.161 -0.008,-0.314 -0.249,-0.382c-0.008,-0.002 -0.007,-0.001 -0.52,-0.137c-6.844,-1.81 -12.346,-3.58 -16.881,-5.308c1.8,-0.892 3.517,-1.782 5.026,-2.572c3.853,1.119 8.273,2.229 13.436,3.348c0.222,0.048 0.347,-0.074 0.382,-0.224c0.033,-0.141 -0.028,-0.337 -0.235,-0.391c-0.008,-0.002 -0.008,-0.001 -0.521,-0.137c-4.351,-1.151 -8.16,-2.286 -11.523,-3.404c0.766,-0.403 1.449,-0.762 2.025,-1.058c7.829,-17.068 3.523,-18.842 14.179,-23.416c3.856,-1.655 21.363,-5.559 29.793,-6.674c-2.849,1.17 -5.849,2.706 -9.027,4.684c-0.146,0.091 -1.746,1.124 -1.805,1.159c-0.355,0.209 -0.491,0.511 -0.349,0.739c0.188,0.304 0.606,0.136 1.024,-0.103c6.178,-3.542 11.564,-5.536 16.4,-6.494Zm-1.279,21.406c-4.329,1.441 -10.768,3.131 -17.379,4.134c-0,0 1.734,5.759 8.446,3.188c6.711,-2.572 8.933,-7.322 8.933,-7.322Zm-79.467,23.485c0.225,-0.013 0.363,-0.189 0.417,-0.631c0.067,-0.563 0.071,-1.231 -0.216,-1.854c-1.42,-3.08 -7.802,-0.841 -8.276,3.99c-0.017,0.18 -0.111,1.132 0.157,2.247c1.143,4.745 5.904,6.054 7.374,2.684c0.156,-0.356 0.241,-0.704 0.241,-0.705c0.06,-0.26 0.041,-0.525 -0.221,-0.605c-0.233,-0.07 -0.503,0.098 -0.667,0.307c-1.864,2.387 -3.571,-0.535 -2.994,-3.344c0.099,-0.483 0.466,-1.374 0.746,-1.841c1.3,-2.165 2.211,-1.812 2.51,-1.443c0.182,0.224 0.38,0.628 0.436,0.847c0.063,0.243 0.272,0.361 0.493,0.348Zm51.321,-21.622c0.315,0.02 0.531,-0.223 0.653,-0.61c0.003,-0.008 0.428,-1.341 0.509,-1.584c1.22,-3.696 1.372,-3.839 1.906,-7.205c0.484,-3.048 0.73,-3.305 0.768,-3.381c0.165,-0.331 0.086,-0.679 -0.161,-0.83c-0.254,-0.156 -0.602,-0.114 -0.832,0.16c-0.04,0.048 -2.084,2.199 -3.065,5.797c-0.718,2.631 -0.321,6.848 -0.318,6.939c0.015,0.412 0.17,0.69 0.54,0.714Zm-13.918,-4.271c-0,-0 -1.225,3.615 4.341,7.339c5.566,3.723 7.927,-1.297 7.927,-1.297c-5.39,-1.912 -8.44,-3.282 -12.268,-6.042Zm-22.232,28.613c0.262,-0.074 0.34,-0.216 0.335,-0.672c-0.046,-4.129 -5.843,-3.869 -7.966,0.155c-0.796,1.507 -0.689,3.326 -0.305,4.582c1.344,4.391 6.436,5.908 7.683,1.853c0.208,-0.678 -0.093,-0.816 -0.156,-0.845c-0.194,-0.089 -0.439,-0.01 -0.601,0.224c-0.011,0.015 -0.347,0.523 -0.883,0.819c-1.047,0.578 -1.834,-0.613 -2.136,-1.347c-0.832,-2.021 0.111,-3.949 0.14,-4.023c0.461,-1.18 1.813,-2.291 2.489,-1.986c0.482,0.219 0.85,0.902 0.853,0.907c0.162,0.31 0.353,0.389 0.547,0.333Zm45.01,-24.407l0.002,-0.001c-0.039,-0.27 -0.154,-1.076 0.466,-3.377c0.688,-2.551 0.662,-2.556 1.163,-5.152c0.566,-2.941 0.812,-3.528 0.829,-3.571c0.163,-0.424 0.077,-0.725 -0.24,-0.853c-0.323,-0.131 -0.63,0.009 -0.881,0.347c-1.973,2.654 -2.764,5.027 -2.889,5.389c-0.94,2.721 -0.856,7.369 0.815,8.466c0.022,0.014 0.26,0.151 0.287,0.163c0.292,0.126 0.613,0.069 0.817,-0.247c0.208,-0.467 -0.159,-0.775 -0.267,-0.817c-0.035,-0.014 -0.092,-0.302 -0.102,-0.347Zm-21.074,-17.629c-0.298,-2.137 -1.932,-3.57 -3.351,-4.431c9.032,-4.33 16.466,-20.74 20.792,-32.439c-0.574,8.227 -1.176,15.445 -1.354,18.881c-0.265,5.129 -0.33,9.273 -0.249,12.642c-5.234,1.22 -9.751,2.446 -11.608,3.241c-1.672,0.716 -3.061,1.401 -4.23,2.106Zm69.196,42.955c0.611,-2.244 1.029,-4.41 1.366,-7.606c0.989,1.101 1.944,2.239 2.862,3.412c-0.434,0.854 -0.658,1.829 -0.607,2.853l0.019,0.366l-3.64,0.975Zm85.995,35.669c4.823,9.322 6.595,17.759 4.81,25.653c-2.834,12.528 -13.917,20.593 -29.412,23.274c-14.054,2.432 -27.344,-0.529 -34.712,-2.559c-12.389,-3.413 -21.354,-8.021 -26.772,-11.019c-0.131,-0.073 -3.268,-1.952 -4.86,-3.112c-2.849,-2.076 -3.785,-2.879 -4.099,-3.148c-3.047,-2.615 -6.008,-5.431 -6.935,-6.478c-3.982,-4.498 -4.755,-5.466 -5.825,-7.422c-0.701,-1.283 -0.969,-3.913 -0.595,-4.317c0.115,-0.124 3.241,0.004 4.78,0.426c2.16,0.594 7.265,2.782 8.179,3.134c4.105,1.576 6.719,2.263 8.806,2.969c2.219,0.75 2.237,0.688 4.449,1.465c1.951,0.685 1.967,0.634 3.909,1.346c1.73,0.634 12.192,4.423 22.764,6.332c17.88,3.227 27.24,-0.269 28.539,-0.713c4.719,-1.613 7.945,-3.892 7.875,-5.176c-0.001,-0.02 0.022,-0.079 0.063,-0.169l5.648,-35.715c5.737,4.06 10.323,9.306 13.388,15.229Zm-153.814,102.263c1.709,-22.205 35.731,-48.331 50.438,-76.979c-0.381,4.714 0.077,10.653 2.608,17.62c-0.717,0.255 -1.462,0.374 -2.164,0.175c-1.571,-0.446 -1.822,-3.146 -1.851,-3.381l-0.062,0.188c-0.871,2.705 0.286,4.544 1.954,4.721c-0.178,0.589 -0.762,2.546 0.166,4.121c0.472,0.801 1.249,1.251 2.053,1.332c-0.196,0.656 -0.712,2.534 0.185,4.056c0.585,0.992 1.637,1.446 2.628,1.327c1.048,-0.126 1.932,-0.716 2.596,-1.334c0.844,1.379 1.734,2.744 2.662,4.096c-0.352,0.607 -0.712,1.223 -1.079,1.844c-0.579,0.11 -1.165,0.109 -1.7,-0.096c-1.736,-0.665 -1.913,-3.87 -1.915,-3.889c-0.16,0.532 -0.797,2.548 0.155,4.162c0.197,0.335 0.448,0.609 0.732,0.819c-1.053,0.631 -2.899,1.596 -4.367,1.034c-1.205,-0.461 -1.659,-2.146 -1.825,-3.141c0.353,0.108 0.724,0.141 1.086,0.098c2.161,-0.26 3.624,-2.492 3.899,-2.877c-0.917,0.567 -3.089,1.919 -4.766,1.277c-1.736,-0.664 -1.913,-3.87 -1.915,-3.889c-0.16,0.533 -0.797,2.548 0.154,4.162c0.316,0.536 0.769,0.915 1.274,1.131c-0.12,0.515 -0.231,1.229 -0.154,1.978c-1.105,0.527 -3.046,1.321 -4.459,0.619c-1.462,-0.727 -1.54,-3.289 -1.538,-3.915c1.879,-0.51 3.133,-2.423 3.386,-2.777c-0.917,0.568 -3.088,1.92 -4.766,1.277c-1.735,-0.664 -1.912,-3.869 -1.914,-3.888c-0.16,0.532 -0.798,2.548 0.154,4.162c0.584,0.991 1.636,1.445 2.627,1.326c0.155,-0.018 0.306,-0.047 0.453,-0.084c-0.258,0.642 -0.844,2.263 -0.284,3.758c-1.103,0.527 -3.054,1.331 -4.473,0.625c-1.665,-0.827 -1.535,-4.034 -1.535,-4.054c-0.21,0.515 -1.037,2.461 -0.244,4.158c0.487,1.043 1.491,1.595 2.489,1.571c1.76,-0.042 3.189,-1.413 3.835,-2.124l0.031,0.069c0.487,1.042 1.491,1.595 2.489,1.571c1.712,-0.041 3.109,-1.339 3.779,-2.064c0.069,0.44 0.209,0.885 0.456,1.304c0.584,0.992 1.637,1.446 2.627,1.327c1.786,-0.215 3.095,-1.776 3.651,-2.53c0.508,0.326 1.103,0.465 1.681,0.41c-1.149,1.923 -2.345,3.885 -3.546,5.824c-0.696,0.261 -1.445,0.414 -2.125,0.278c-1.865,-0.375 -2.297,-2.789 -2.472,-4.082c-0.104,0.408 -0.433,1.638 -0.2,2.904c-0.584,0.309 -3.472,1.763 -5.081,0.754c-0.198,-0.125 -1.096,-0.688 -1.364,-2.583c-0.192,-1.353 -0.059,-1.685 -0.106,-1.569c-0.812,2.031 -0.682,3.458 -0.175,4.398c-0.955,0.468 -3.362,1.487 -4.778,0.599c-0.197,-0.125 -1.096,-0.688 -1.364,-2.583c-0.192,-1.353 -0.059,-1.685 -0.105,-1.569c-0.415,1.038 -0.584,1.918 -0.583,2.656c-0.909,0.608 -2.572,1.571 -3.965,1.317c-1.872,-0.34 -2.349,-2.745 -2.548,-4.034c-0.133,0.562 -0.66,2.683 0.415,4.289c0.661,0.986 1.767,1.389 2.778,1.213c1.546,-0.269 2.695,-1.51 3.339,-2.376c0.157,1.667 1.24,2.507 2.159,2.751c-0.144,0.77 -0.247,1.935 0.189,3.003c-0.939,0.588 -2.566,1.448 -3.912,1.171c-1.863,-0.385 -2.283,-2.801 -2.451,-4.094c-0.146,0.559 -0.724,2.667 0.314,4.297c0.298,0.469 0.695,0.812 1.138,1.029c-0.224,0.16 -3.177,2.305 -5.027,1.448c-0.212,-0.098 -1.175,-0.544 -1.68,-2.389c-0.146,-0.535 -0.219,-0.909 -0.255,-1.158c0.127,0.034 0.252,0.056 0.372,0.068c2.321,0.228 4.23,-2.292 4.391,-2.484c-0.487,0.26 -2.966,1.681 -4.617,0.985c-1.603,-0.676 -1.676,-3.191 -1.692,-3.986c-0.165,0.443 -0.895,2.294 -0.189,3.895c0.364,0.825 0.993,1.287 1.604,1.484c-0.334,1.491 -0.224,2.603 0.116,3.409c-1.001,0.487 -2.476,1.037 -3.657,0.696c-1.827,-0.527 -2.06,-2.969 -2.127,-4.271c-0.189,0.546 -0.928,2.603 -0.02,4.309c0.558,1.048 1.617,1.561 2.641,1.488c1.433,-0.102 2.617,-1.048 3.365,-1.818c0.613,1.035 1.645,1.431 2.402,1.428c2.451,-0.01 4.184,-2.809 4.378,-3.102c0.504,0.246 1.066,0.329 1.605,0.249c0.351,-0.053 0.683,-0.156 0.994,-0.293c-0.101,0.887 -0.064,2.047 0.563,3.033c0.596,0.937 1.593,1.373 2.55,1.301c-0.168,0.646 -0.667,2.659 0.332,4.23c0.637,1.002 1.733,1.432 2.748,1.28c0.298,-0.045 0.582,-0.126 0.851,-0.233c-0.563,0.812 -1.009,1.433 -1.308,1.822c-1.318,1.714 -2.552,3.392 -3.699,5.042c-0.957,0.548 -2.324,1.153 -3.483,0.914c-1.538,-0.318 -2.093,-2.019 -2.335,-3.331c0.859,-0.49 1.543,-1.227 1.988,-1.792c0.646,0.915 1.693,1.304 2.666,1.158c2.22,-0.332 3.674,-2.67 3.955,-3.084c-0.535,0.36 -2.793,1.967 -4.565,1.601c-1.37,-0.282 -1.96,-1.665 -2.243,-2.891c1.917,-0.584 3.162,-2.583 3.419,-2.963c-0.535,0.361 -2.793,1.968 -4.565,1.602c-1.863,-0.384 -2.283,-2.8 -2.452,-4.094c-0.145,0.559 -0.723,2.667 0.314,4.298c0.638,1.002 1.733,1.431 2.748,1.279l0.073,-0.012c-0.088,0.828 -0.052,1.88 0.463,2.807c-1.044,0.634 -2.953,1.579 -4.288,0.961c-0.212,-0.099 -1.175,-0.544 -1.68,-2.39c-0.361,-1.318 -0.271,-1.664 -0.303,-1.543c-1.098,4.236 1.237,5.595 2.637,5.589c0.543,-0.003 1.05,-0.141 1.513,-0.359c-0.146,0.913 -0.192,2.252 0.517,3.367c0.637,1.002 1.733,1.431 2.748,1.279c0.636,-0.095 1.208,-0.354 1.709,-0.686c-2.603,3.909 -4.708,7.685 -6.288,11.468c-2.053,1.679 -5.038,2.906 -6.786,-2.694c-0.006,0.211 -0.178,2.602 1.005,4.202c1.303,1.762 3.044,1.365 3.179,1.338c0.706,-0.142 1.322,-0.49 1.847,-0.931c-0.208,0.563 -0.405,1.127 -0.59,1.691c-6.323,-0.467 -12.562,-1.404 -18.673,-2.785c0.244,-0.01 0.407,-0.046 0.445,-0.054c1.708,-0.344 2.883,-1.889 3.546,-3.046c1.274,1.475 2.852,1.116 2.98,1.09c1.346,-0.271 2.361,-1.288 3.055,-2.273c0.978,0.772 2.023,0.655 2.127,0.646c2.024,-0.175 3.512,-2.054 4.212,-3.13c0.962,1.541 2.483,1.507 2.609,1.507c2.756,0.006 4.806,-3.196 4.973,-3.433c-1.846,1.305 -6.542,4.404 -7.767,-1.513c2.211,-0.639 3.772,-3.075 3.917,-3.282c-0.811,0.574 -3.357,2.433 -5.414,1.868c-1.729,-0.475 -2.283,-2.766 -2.463,-3.964c0.091,-0.005 0.182,-0.014 0.272,-0.027c2.219,-0.332 3.674,-2.671 3.955,-3.085c-0.535,0.361 -2.794,1.968 -4.565,1.602c-1.863,-0.385 -2.284,-2.8 -2.452,-4.094c-0.146,0.559 -0.723,2.667 0.314,4.298c0.53,0.833 1.378,1.271 2.233,1.306c-0.231,1.321 -0.138,2.398 0.161,3.239c-2.165,1.4 -6.075,3.199 -6.721,-3.158c-0.122,0.516 -0.678,2.682 0.305,4.369c0.075,0.13 0.156,0.25 0.241,0.361c-2.236,1.623 -6.194,3.647 -7.275,-2.996c-0.036,0.208 -0.542,2.551 0.404,4.302c1.042,1.927 2.822,1.779 2.958,1.771c1.902,-0.11 3.374,-1.729 4.153,-2.801c0.719,0.735 1.669,0.951 2.464,0.837c1.616,-0.231 2.874,-1.476 3.599,-2.365c0.596,1.323 1.741,1.968 2.858,1.971c0.208,0 0.411,-0.017 0.61,-0.051c-0.079,0.851 -0.05,1.945 0.394,2.899c0.03,0.065 0.061,0.128 0.093,0.188c-1.408,1.125 -3.699,2.628 -5.473,1.537c-1.055,-0.649 -1.68,-1.786 -2.131,-4.13c-0.03,0.209 -0.468,2.565 0.528,4.288c0.113,0.196 0.233,0.369 0.358,0.523c-3.236,2.605 -5.397,1.474 -6.715,-2.75c-0.007,0.205 -0.169,2.477 0.914,4.074c-2.02,1.892 -5.496,4.114 -7.441,-2.118c-0.006,0.211 -0.178,2.602 1.006,4.202c0.361,0.489 0.756,0.812 1.141,1.022c-3.505,-0.839 -6.966,-1.824 -10.373,-2.951Zm23.965,-20.598c-0.101,0.046 -0.841,0.383 -1.271,0.531c-2.788,0.965 -4.182,0.314 -4.721,-1.366c-0.452,-1.41 -0.227,-2.752 -0.28,-2.632c-1.717,3.846 0.284,5.508 1.614,5.725c2.361,0.385 4.478,-2.07 4.658,-2.258Zm-3.402,5.389c-0.535,0.36 -2.794,1.967 -4.565,1.601c-1.863,-0.384 -2.284,-2.8 -2.452,-4.094c-0.146,0.559 -0.723,2.667 0.314,4.298c0.637,1.002 1.733,1.431 2.748,1.279c2.219,-0.332 3.674,-2.671 3.955,-3.084Zm31.919,-36.918c-0.917,0.568 -3.088,1.919 -4.766,1.277c-1.735,-0.664 -1.912,-3.869 -1.914,-3.888c-0.16,0.532 -0.798,2.547 0.154,4.162c0.584,0.991 1.636,1.445 2.627,1.326c2.162,-0.259 3.624,-2.492 3.899,-2.877Zm-20.907,31.313c-0.535,0.36 -2.794,1.967 -4.565,1.602c-1.863,-0.385 -2.284,-2.801 -2.452,-4.094c-0.146,0.559 -0.723,2.667 0.314,4.297c0.637,1.002 1.733,1.431 2.748,1.28c2.219,-0.333 3.674,-2.671 3.955,-3.085Zm23.09,-12.416c-0.535,0.856 -1.069,1.705 -1.597,2.54c-0.891,0.671 -2.253,1.51 -3.492,1.397c-1.894,-0.174 -2.582,-2.527 -2.895,-3.794c-0.05,0.355 -0.2,1.319 -0.017,2.36c-0.593,0.403 -2.794,1.935 -4.529,1.577c-1.529,-0.315 -2.087,-2 -2.33,-3.309l0.025,0.003c1.981,0.244 3.723,-1.406 4.426,-2.171c0.516,0.836 1.341,1.245 1.997,1.326c2.247,0.277 4.187,-1.884 4.651,-2.425c0.089,0.455 0.252,0.913 0.526,1.338c0.642,0.999 1.74,1.423 2.754,1.266c0.165,-0.026 0.325,-0.062 0.481,-0.108Zm-2.952,4.67c-1.185,1.856 -2.325,3.614 -3.371,5.208c-0.486,0.055 -0.96,0.014 -1.377,-0.179c-0.212,-0.098 -1.175,-0.544 -1.68,-2.39c-0.361,-1.317 -0.271,-1.664 -0.303,-1.542c-1.037,3.998 0.986,5.433 2.394,5.576c-0.631,0.953 -1.218,1.83 -1.747,2.612c-0.831,0.378 -1.796,0.659 -2.648,0.483c-1.832,-0.378 -2.269,-2.721 -2.444,-4.029c0.058,-0.005 0.115,-0.011 0.172,-0.02c2.219,-0.332 3.674,-2.671 3.955,-3.084c-0.535,0.36 -2.794,1.967 -4.565,1.601c-1.428,-0.294 -2.009,-1.782 -2.278,-3.043c0.89,-0.509 1.579,-1.272 2.022,-1.847c0.047,0.09 0.098,0.18 0.154,0.268c0.638,1.002 1.733,1.431 2.748,1.279c2.146,-0.321 3.577,-2.518 3.924,-3.037c0.113,0.631 0.35,1.288 0.806,1.852c0.745,0.925 1.882,1.229 2.874,0.964c0.509,-0.136 0.964,-0.377 1.364,-0.672Zm4.833,-69.951l2.177,8.125c-0,-0 -2.597,-1.064 -3.519,-1.432c-2.493,-3.222 -1.913,-5.422 1.342,-6.693Zm-3.183,40.002c0.567,1.48 1.228,3.006 1.994,4.574c-0.824,0.29 -1.72,0.428 -2.507,0.126c-1.623,-0.621 -1.883,-3.462 -1.912,-3.845c0.45,0.044 0.936,-0.031 1.429,-0.243c0.364,-0.156 0.698,-0.373 0.996,-0.612Zm2.413,5.416c0.482,0.951 1.003,1.917 1.565,2.898c0.272,0.475 0.549,0.947 0.832,1.418c-0.966,0.429 -2.109,0.731 -3.085,0.357c-1.549,-0.593 -1.857,-3.211 -1.906,-3.78c0.178,0.015 0.357,0.013 0.535,-0.009c0.787,-0.094 1.481,-0.45 2.059,-0.884Zm63.915,31.684c-5.831,4.645 -12.075,8.791 -18.669,12.375c-0.433,-0.487 -0.872,-0.973 -1.315,-1.458c0.74,0.208 1.526,0.285 2.323,0.134c1.676,-0.317 2.512,-1.593 2.808,-2.304c1.103,-2.647 -0.538,-5.554 -0.847,-6.134c0.104,1.286 0.178,3.005 -0.539,4.599c-1.002,2.229 -3.615,2.127 -5.643,1.661c-1.513,-1.604 -3.068,-3.195 -4.648,-4.775c0.633,-0.447 1.02,-1.021 1.186,-1.337c0.349,-0.666 0.509,-1.36 0.552,-2.031c0.158,0.143 0.346,0.306 0.569,0.486c0.077,0.062 0.545,0.441 0.991,0.727c2.757,1.774 4.631,1.033 5.01,0.884c1.22,-0.483 1.833,-1.555 2.029,-2.037c0.039,-0.094 0.074,-0.188 0.105,-0.283c0.174,0.161 0.389,0.35 0.652,0.562c0.077,0.062 0.545,0.44 0.991,0.727c2.757,1.774 4.632,1.033 5.01,0.883c1.221,-0.482 1.833,-1.555 2.029,-2.036c1.041,-2.555 -0.477,-5.231 -0.848,-5.928c0.145,1.811 -0.022,2.762 -0.235,3.566c-0.227,0.855 -0.627,1.481 -0.994,1.82c-1.721,1.59 -5.066,0.618 -6.516,0.108c0.551,-2.089 -0.416,-4.154 -0.886,-5.052c0.927,0.134 1.559,-0.049 1.764,-0.108c1.261,-0.364 1.973,-1.373 2.214,-1.833c1.28,-2.444 0.024,-5.253 -0.279,-5.982c-0.029,1.816 -0.285,2.747 -0.574,3.527c-0.307,0.83 -0.765,1.414 -1.163,1.718c-2.255,1.716 -6.521,-0.528 -7.101,-0.805c0.134,0.161 0.456,0.585 1.083,1.2c0.071,0.069 0.501,0.49 0.917,0.818c1.157,0.912 2.186,1.301 3.002,1.443c0.108,1.636 -0.052,2.53 -0.254,3.293c-0.227,0.856 -0.627,1.481 -0.994,1.821c-1.718,1.588 -5.058,0.62 -6.51,0.11c0.001,-1.01 -0.241,-1.946 -0.475,-2.631c0.835,-0.459 1.329,-1.178 1.521,-1.546c1.28,-2.444 0.024,-5.253 -0.279,-5.982c-0.028,1.817 -0.285,2.747 -0.574,3.527c-0.307,0.83 -0.765,1.414 -1.163,1.718c-2.255,1.716 -6.52,-0.528 -7.101,-0.805c0.134,0.161 0.456,0.586 1.084,1.2c0.07,0.069 0.5,0.49 0.916,0.818c2.576,2.029 4.512,1.47 4.903,1.357c0.093,-0.027 0.182,-0.057 0.269,-0.09c-0.096,1.101 -0.298,1.785 -0.518,2.381c-0.308,0.831 -0.766,1.415 -1.164,1.718c-0.251,0.192 -0.528,0.334 -0.821,0.435c-6.408,-6.316 -13.141,-12.48 -19.154,-18.65c0.272,0.034 0.562,0.035 0.865,-0.011c0.205,-0.031 1.477,-0.226 2.172,-1.412c1.35,-2.304 -0.45,-5.137 -0.528,-5.277c-0.347,2.722 -1.176,3.763 -1.526,4.351c-0.48,0.806 -1.111,1.169 -1.981,1.319c-3.436,-3.575 -6.61,-7.155 -9.321,-10.77c-3.234,-4.314 -10.335,-14.331 -10.566,-27.045c2.034,1.985 5.089,4.72 6.416,5.786c1.375,1.105 2.567,1.986 3.473,2.628c0.35,0.331 0.688,0.641 1.019,0.94c-2.495,1.437 -5.624,-2.231 -6.091,-2.738c0.079,0.304 0.513,2.232 1.677,3.637c0.567,0.685 1.446,1.47 2.691,1.633c1.174,0.155 2.137,-0.432 2.507,-0.737c0.224,-0.184 0.42,-0.384 0.592,-0.595c0.461,0.392 0.933,0.784 1.436,1.199c1.562,1.286 4.105,3.003 6.272,4.399c-0.083,1.029 -0.311,1.734 -0.608,2.326c-1.383,2.76 -6.111,0.921 -6.782,0.689c0.215,0.231 1.51,1.723 3.201,2.409c0.824,0.334 1.97,0.609 3.144,0.163c1.02,-0.388 1.584,-1.245 1.808,-1.724c0.63,0.811 2.307,2.948 4.752,3.207c1.336,0.141 2.747,-0.517 3.416,-1.935c1.583,0.796 3.472,1.698 5.66,2.664c1.185,0.523 2.683,1.112 4.31,1.706c11.321,7.024 24.525,15.427 29.328,29.379Zm-35.496,-16.974c0.164,0.185 0.373,0.408 0.635,0.664c0.07,0.069 0.5,0.49 0.916,0.818c2.025,1.595 3.655,1.591 4.449,1.461c-0.046,1.663 -0.292,2.547 -0.568,3.292c-0.308,0.83 -0.766,1.415 -1.164,1.718c-2.255,1.716 -6.52,-0.528 -7.101,-0.805c0.134,0.161 0.456,0.586 1.084,1.2c0.07,0.069 0.5,0.491 0.917,0.819c2.575,2.028 4.511,1.469 4.902,1.357c1.261,-0.364 1.973,-1.373 2.215,-1.834c1.175,-2.245 0.211,-4.798 -0.189,-5.764c0.166,-0.031 0.287,-0.066 0.358,-0.087c1.261,-0.364 1.973,-1.373 2.214,-1.833c1.28,-2.444 0.024,-5.253 -0.279,-5.982c-0.028,1.817 -0.285,2.747 -0.574,3.527c-0.307,0.83 -0.765,1.415 -1.163,1.718c-1.959,1.491 -5.436,-0.007 -6.695,-0.608c-0.134,-0.887 -0.407,-1.65 -0.602,-2.137c0.207,-0.02 0.418,-0.059 0.632,-0.12c1.139,-0.327 1.788,-1.249 2.006,-1.675c1.127,-2.208 -0.051,-4.666 -0.346,-5.322c-0.084,1.926 -0.457,2.975 -0.95,3.784c-1.61,2.634 -6.168,0.404 -6.816,0.117c0.194,0.248 1.359,1.844 2.987,2.669c0.614,0.311 1.423,0.603 2.316,0.559c-0.057,1.557 -0.296,2.405 -0.563,3.126c-0.307,0.83 -0.765,1.415 -1.163,1.718c-2.255,1.716 -6.521,-0.528 -7.101,-0.805c0.134,0.161 0.456,0.586 1.083,1.2c0.071,0.069 0.501,0.49 0.917,0.818c2.575,2.029 4.512,1.47 4.903,1.357c1.261,-0.364 1.973,-1.373 2.214,-1.833c0.542,-1.036 0.629,-2.137 0.526,-3.117Zm-27.352,-24.474c0.063,0.308 0.395,2.256 1.483,3.72c0.531,0.714 1.368,1.544 2.602,1.773c1.165,0.216 2.157,-0.32 2.542,-0.604c1.994,-1.474 2.035,-4.2 2.064,-4.918c-0.934,1.686 -1.736,2.459 -2.538,2.963c-2.616,1.64 -5.701,-2.388 -6.153,-2.934Zm5.173,11.199c0.134,0.285 0.918,2.099 2.323,3.263c0.684,0.568 1.694,1.177 2.947,1.106c1.183,-0.066 2.02,-0.822 2.327,-1.19c1.587,-1.904 0.981,-4.561 0.84,-5.266c-0.508,1.86 -1.104,2.801 -1.764,3.48c-2.153,2.213 -6.104,-0.969 -6.673,-1.393Zm29.157,16.145c0.133,0.161 0.456,0.585 1.083,1.2c0.07,0.069 0.5,0.49 0.917,0.818c2.575,2.029 4.511,1.47 4.902,1.357c1.261,-0.364 1.974,-1.373 2.215,-1.833c1.279,-2.444 0.023,-5.253 -0.28,-5.982c-0.028,1.816 -0.285,2.747 -0.573,3.527c-0.308,0.83 -0.765,1.414 -1.164,1.718c-2.255,1.716 -6.52,-0.528 -7.1,-0.805Zm-20.723,-12.872c0.194,0.248 1.36,1.844 2.987,2.669c0.793,0.402 1.912,0.773 3.119,0.427c1.139,-0.327 1.788,-1.248 2.006,-1.675c1.127,-2.208 -0.051,-4.666 -0.346,-5.322c-0.083,1.926 -0.457,2.976 -0.95,3.784c-1.61,2.634 -6.168,0.404 -6.816,0.117Zm1.941,-11.315c0.868,0.55 1.631,1.022 2.182,1.355c0.478,0.29 1.843,1.116 4.062,2.283c-1.832,1.808 -5.715,-0.07 -6.403,-0.382c0.016,-0.035 0.031,-0.068 0.043,-0.099c0.452,-1.106 0.365,-2.224 0.116,-3.157Z" style="fill:#91a361;"/><path d="M135.348,144.528l-10.612,-39.603c-0.169,-0.631 0.206,-1.28 0.837,-1.449l17.589,-4.713l1.487,29.652c-0.656,1.052 -0.623,2.14 0.163,3.268l0.018,0.341c-0.964,1.58 -0.767,2.898 0.202,4.041l0.125,2.488c-0.764,2.067 -0.819,4.024 0.291,5.799l0.177,3.548c-0.347,-0.117 -0.766,-0.259 -1.359,-0.466c-2.037,-0.707 -2.046,-0.676 -4.094,-1.351c-1.936,-0.639 -3.459,-1.115 -4.824,-1.555Zm14.864,4.981l-2.804,-55.935c-0.033,-0.651 0.47,-1.207 1.122,-1.24l35.999,-1.805c0.651,-0.032 1.207,0.471 1.24,1.122l0.238,4.74l-12.993,-2.055c-3.098,-0.49 -6.011,1.628 -6.501,4.725l-2.126,13.443c-0.624,1.173 -0.817,2.373 -0.569,3.6l-0.473,2.993c-0.776,0.924 -1.183,1.909 -0.487,3.077l-0.063,0.397c-0.969,1.202 -1.122,2.469 -0.599,3.788l-0.334,2.115c-1.395,2.055 -1.823,4.207 -1.026,6.489l-2.698,17.056c-2.348,-0.674 -5.031,-1.505 -7.926,-2.51Zm12.295,3.692l8.451,-53.437c0.102,-0.644 0.708,-1.085 1.353,-0.983l35.602,5.63c0.644,0.102 1.085,0.708 0.983,1.353l-7.396,46.767c-0.494,0.279 -1.45,0.795 -3.195,1.456c-1.115,0.422 -11.015,4.562 -30.977,0.339c-0.642,-0.136 -2.349,-0.498 -4.821,-1.125Z" style="fill:#fff;"/><path d="M163.818,116.104l-0.057,-0.105c-0.935,-1.729 -0.373,-2.858 0.626,-3.495l-0.569,3.6Zm-1.622,10.255c-1.016,0.111 -2.041,0.136 -2.994,0.023c-2.501,-0.296 -2.943,-0.689 -3.242,-2.477c-0.122,-0.723 0.3,-4.312 1.814,-5.75c1.797,-1.707 3.405,-0.959 4.091,-0.362c0.48,0.419 0.979,0.859 1.48,1.304l-0.487,3.077c-1.473,-0.397 -2.053,-0.42 -2.422,-0.425c0.686,0.124 1.466,0.423 2.359,0.822l-0.599,3.788Zm-3.26,-4.93c-0.584,1.101 -0.971,1.735 -0.561,2.842c0.022,0.06 0.276,0.746 0.397,0.696c0.052,-0.021 0.04,-0.062 0.032,-0.094c-0.329,-1.359 -0.089,-1.685 0.485,-2.541c0.244,-0.363 0.422,-0.762 0.422,-0.762c0.005,-0.036 -0.018,-0.034 -0.065,-0.448c-0.189,-1.653 0.8,-2.446 0.808,-2.464c0.034,-0.08 0.019,-0.107 -0.067,-0.106c-0.021,0.001 -0.389,0.217 -0.64,0.482c-0.863,0.915 -0.849,1.924 -0.811,2.395Zm1.9,13.534c-0.562,-0.37 -1.076,-0.804 -1.433,-1.294c-1.525,-2.092 0.226,-3.418 0.92,-4.003c0.484,-0.408 1.005,-0.808 1.539,-1.192l-1.026,6.489Zm-3.135,-5.239c-0.625,0.28 -1.886,0.328 -2.088,-0.163c-0.202,-0.49 -0.069,-0.859 1.37,-1.574c1.439,-0.715 2.744,-0.101 2.744,-0.101c0,0 -0.633,1.212 -2.026,1.838Zm2.422,-14.534c-0.43,-0.532 -0.8,-1.74 -0.376,-2.061c0.423,-0.32 0.813,-0.286 1.872,0.923c1.059,1.208 0.799,2.627 0.799,2.627c-0,0 -1.334,-0.302 -2.295,-1.489Zm23.567,19.028c-2.147,0.157 -5.456,0.106 -7.956,-0.851c-2.353,-0.9 -2.685,-1.39 -2.537,-3.196c0.06,-0.731 1.348,-4.107 3.168,-5.13c2.161,-1.214 3.537,-0.095 4.055,0.652c1.57,2.263 3.377,4.998 4.44,6.607c-0.637,-1.891 -1.483,-5.204 -2.161,-7.882c-0.591,-2.333 0.774,-3.244 2.256,-3.4c1.936,-0.204 3.696,0.104 6.152,1.062c1.788,0.698 1.059,3.257 0.633,4.058c-1.346,2.525 -3.344,5.08 -4.596,6.493c1.589,-1.178 3.855,-2.665 6.156,-3.965c2.434,-1.376 3.299,-0.1 3.931,1.095c0.525,0.99 0.945,4.259 1.006,4.993c0.267,3.224 -2.842,2.431 -3.74,2.272c-1.992,-0.353 -4.524,-1.163 -6.43,-1.833c1.768,1.259 3.92,3.029 5.036,4.697c1.494,2.232 0.689,3.114 -0.243,4.001c-0.982,0.935 -3.345,1.927 -4.076,2.023c-2.326,0.307 -3.164,-1.246 -3.313,-2.986c-0.249,-2.91 -0.092,-6.729 -0.092,-6.729c-0,-0 -1.329,4.023 -3.473,6.676c-1.584,1.959 -2.011,2.227 -3.824,1.425c-0.671,-0.297 -3.197,-1.969 -3.94,-3.819c-0.966,-2.402 1.057,-3.258 1.873,-3.655c2.637,-1.284 5.975,-2.19 7.675,-2.608Zm6.993,8.962c0.286,-0.014 1.008,-0.092 1.652,-0.547c0.694,-0.49 0.937,-1.108 0.964,-1.17c0.017,-0.038 0.086,-0.161 0.012,-0.195c-0.063,-0.029 -0.121,0.085 -0.146,0.117c-0.993,1.262 -2.685,1.031 -2.721,1.042c-0.078,0.026 -0.137,0.09 -0.204,0.136c-0.352,0.237 -0.582,0.477 -0.941,0.773c-0.994,0.818 -2.048,0.299 -2.095,0.48c-0.018,0.071 0.098,0.098 0.129,0.11c1.589,0.617 2.247,0.046 3.35,-0.746Zm-13.993,-14.68c-0.837,0.924 -1.367,1.443 -1.241,2.618c0.007,0.064 0.085,0.79 0.215,0.772c0.055,-0.008 0.053,-0.05 0.053,-0.083c0.014,-1.398 0.328,-1.656 1.094,-2.345c0.324,-0.292 0.596,-0.636 0.596,-0.636c0.013,-0.033 -0.009,-0.036 0.046,-0.45c0.222,-1.648 1.376,-2.175 1.388,-2.19c0.053,-0.07 0.044,-0.099 -0.039,-0.119c-0.021,-0.005 -0.431,0.114 -0.739,0.31c-1.061,0.675 -1.295,1.657 -1.373,2.123Zm19.148,4.275c0.022,-0.259 0.031,-0.805 -0.261,-1.438c-0.404,-0.874 -1.149,-1.328 -1.16,-1.331c-0.09,-0.019 -0.113,0.012 -0.08,0.097c0.019,0.049 0.069,0.08 0.101,0.122c0.994,1.302 0.607,2.674 0.617,2.717c0.006,0.03 0.398,0.614 0.515,0.894c0.358,0.852 -0.099,1.812 -0.106,2.029c-0.003,0.089 0.051,0.115 0.115,0.051c0.037,-0.038 0.056,-0.09 0.083,-0.136c0.864,-1.435 0.695,-2.094 0.176,-3.005Zm-18.151,8.635c0.142,0.218 0.472,0.654 1.092,0.972c0.857,0.439 1.723,0.338 1.734,0.333c0.082,-0.04 0.082,-0.079 0.003,-0.126c-0.045,-0.026 -0.103,-0.02 -0.154,-0.033c-1.586,-0.413 -2.127,-1.732 -2.162,-1.76c-0.023,-0.019 -0.692,-0.238 -0.956,-0.386c-0.807,-0.45 -1.039,-1.488 -1.167,-1.664c-0.052,-0.071 -0.111,-0.059 -0.122,0.032c-0.006,0.052 0.012,0.105 0.018,0.157c0.205,1.663 0.744,2.078 1.714,2.475Zm9.969,-18.105c-0.235,-0.159 -0.68,-0.416 -1.279,-0.51c-0.101,-0.016 -0.655,-0.104 -1.277,0.089c-0.054,0.017 -0.693,0.216 -0.621,0.354c0.028,0.054 0.086,0.026 0.121,0.016c0.654,-0.187 1.637,-0.124 2.561,0.605c0.319,0.252 0.31,0.302 0.404,0.272c1.027,-0.323 1.926,-0.74 3.137,0.408c0.025,0.024 0.095,0.117 0.152,0.073c0.058,-0.044 -0.018,-0.137 -0.035,-0.166c-1.03,-1.707 -2.566,-1.334 -3.163,-1.141Zm-3.412,10.339c-0.021,0.081 -0.04,0.166 -0.056,0.254c-0.07,0.385 -0.046,0.701 0.067,0.957c-0.755,0.661 -0.847,0.703 -1.709,1.513c-0.627,0.588 -2.264,2.378 -4.201,4.391c1.303,-1.004 3.937,-3.097 4.866,-3.972c0.122,-0.115 0.879,-0.827 1.431,-1.466c0.221,0.157 0.514,0.266 0.873,0.331c0.366,0.067 0.679,0.062 0.94,-0.018c0.334,0.75 0.463,1.243 1.26,2.753c1.385,2.624 1.767,3.341 2.157,4.194c-0.454,-1.632 -1.532,-4.499 -1.839,-5.233c-0.147,-0.353 -0.655,-1.386 -1.064,-2.037c0.187,-0.205 0.32,-0.493 0.4,-0.869l0,-0.001c0.567,-0.027 1.538,-0.193 2.048,-0.335c1.663,-0.464 2.692,-0.833 4.076,-1.063c-0.381,-0.012 -0.966,-0.05 -2.753,0.141c-2.142,0.228 -2.348,0.398 -3.333,0.656c-0.061,-0.589 -0.43,-1.031 -1.043,-1.231c0.547,-2.145 0.546,-2.346 1.093,-7.396c-0.799,2.894 -1.229,4.413 -1.455,5.619c-0.1,0.533 -0.178,1.253 -0.219,1.667c-0.628,-0.045 -1.053,0.164 -1.318,0.601c-0.897,-0.757 -1.32,-1.233 -3.286,-2.412c-1.976,-1.184 -2.687,-1.397 -3.113,-1.51c1.116,0.507 2.384,1.612 3.999,2.942c0.756,0.623 1.759,1.283 2.179,1.524Zm0.992,-0.595c0.552,-0.23 1.304,0.092 1.535,0.653c0.223,0.544 0.035,1.249 -0.509,1.473c-0.552,0.227 -1.367,-0.069 -1.589,-0.614c-0.222,-0.544 0.02,-1.285 0.563,-1.512Zm9.135,-8.295c0.499,-0.467 1.678,-0.922 2.028,-0.522c0.349,0.398 0.343,0.79 -0.787,1.933c-1.129,1.142 -2.563,0.984 -2.563,0.984c-0,0 0.206,-1.352 1.322,-2.395Zm2.052,14.279c0.534,0.427 1.153,1.528 0.807,1.932c-0.344,0.403 -0.733,0.453 -2.025,-0.502c-1.293,-0.954 -1.342,-2.396 -1.342,-2.396c-0,0 1.367,0.011 2.56,0.966Zm-22.964,-2.794c-0.674,0.118 -1.91,-0.144 -1.985,-0.67c-0.075,-0.525 0.144,-0.849 1.715,-1.19c1.57,-0.34 2.685,0.575 2.685,0.575c-0,0 -0.911,1.02 -2.415,1.285Zm5.911,-13.497c-0.287,-0.621 -0.349,-1.882 0.141,-2.09c0.488,-0.206 0.858,-0.078 1.588,1.354c0.731,1.431 0.131,2.743 0.131,2.743c-0,-0 -1.219,-0.62 -1.86,-2.007Zm4.855,23.367c-0.126,0.673 -0.805,1.738 -1.324,1.623c-0.517,-0.113 -0.745,-0.432 -0.512,-2.022c0.232,-1.59 1.48,-2.313 1.48,-2.313c0,-0 0.636,1.21 0.356,2.712Zm-39.193,-10.044c-0.828,0.263 -1.669,0.46 -2.481,0.548c-2.504,0.27 -3.023,-0.014 -3.714,-1.69c-0.28,-0.678 -0.671,-4.27 0.483,-6.009c1.37,-2.066 3.105,-1.696 3.906,-1.268c0.463,0.248 0.94,0.506 1.423,0.769l0.163,3.268c-1.256,-0.029 -1.763,0.067 -2.093,0.138c0.604,-0.028 1.307,0.056 2.111,0.203l0.202,4.041Zm-3.847,-4.22c-0.324,1.203 -0.559,1.907 0.088,2.895c0.035,0.054 0.436,0.665 0.543,0.59c0.046,-0.033 0.024,-0.069 0.01,-0.099c-0.625,-1.251 -0.463,-1.623 -0.095,-2.585c0.156,-0.408 0.241,-0.838 0.241,-0.838c-0.004,-0.036 -0.025,-0.028 -0.164,-0.422c-0.553,-1.568 0.233,-2.562 0.237,-2.581c0.015,-0.086 -0.005,-0.109 -0.089,-0.089c-0.02,0.005 -0.331,0.299 -0.516,0.613c-0.637,1.085 -0.398,2.065 -0.255,2.516Zm4.263,12.507c-0.399,-0.19 -0.767,-0.416 -1.072,-0.682c-1.954,-1.698 -0.544,-3.381 0.002,-4.107c0.246,-0.328 0.508,-0.655 0.78,-0.979l0.29,5.768Zm-3.613,-4.146c-0.546,0.412 -1.765,0.742 -2.072,0.307c-0.306,-0.432 -0.259,-0.821 0.984,-1.84c1.243,-1.018 2.652,-0.711 2.652,-0.711c0,-0 -0.346,1.322 -1.564,2.244Zm-0.888,-14.708c-0.538,-0.423 -1.168,-1.517 -0.827,-1.925c0.34,-0.406 0.728,-0.46 2.03,0.481c1.303,0.942 1.367,2.383 1.367,2.383c-0,-0 -1.368,0.003 -2.57,-0.939Z" style="fill:#ee6d51;"/><path d="M48.238,222.745c1.815,-5.674 4.222,-11.146 6.785,-16.139l0.061,0.019c0.064,0.022 0.675,-0.003 2.458,0.342c2.082,0.404 5.286,1.385 7.536,2.188c3.267,1.166 5.932,1.84 10.864,3.837c-3.699,-2.653 -7.527,-4.762 -10.187,-5.719c-1.144,-0.412 -5.505,-2.048 -10.008,-2.057c0.968,-1.833 1.953,-3.595 2.931,-5.272c0.71,-1.217 1.561,-2.593 2.53,-4.08c3.613,0.634 8.112,2.054 8.935,2.323c3.827,1.247 8.634,2.456 13.024,4.568c-0.327,-0.254 -1.902,-1.48 -4.316,-2.861c-5.227,-2.989 -8.42,-3.859 -8.733,-3.958c-0.447,-0.141 -3.854,-1.292 -7.79,-1.764c1.929,-2.867 4.224,-6.05 6.74,-9.262c3.891,0.637 9.051,2.275 9.548,2.435c4.357,1.403 9.472,2.709 13.53,4.795c-0.253,-0.206 -1.069,-0.911 -3.088,-2.16c-0.404,-0.25 -2.595,-1.605 -5.217,-2.819c-2.699,-1.25 -3.568,-1.538 -5.288,-2.076c-0.355,-0.111 -4.023,-1.339 -8.179,-1.82c1.81,-2.249 3.717,-4.488 5.669,-6.616c1.287,-1.404 2.816,-2.948 2.851,-2.984c2.325,-2.302 11.983,-11.039 18.093,-17.639c1.051,-1.135 4.968,-6.081 5.588,-7.182c3.384,-6.007 4.487,-10.6 4.913,-12.589c0.052,-0.239 0.347,-1.871 0.474,-3.63c0.039,-0.533 0.064,-1.054 0.076,-1.561c0.861,-0.433 1.684,-0.813 3.394,-1.752c6.647,-3.651 10.555,-7.215 12.653,-9.43l3.934,14.68c-0.415,2.552 -0.894,4.798 -1.342,6.693c-3.977,-1.587 -5.061,-1.834 -7.346,-2.027c-3.01,-0.254 -3.617,0.025 -4.367,0.856c-0.175,0.195 -0.315,0.426 -0.424,0.683c-1.618,-0.03 -2.807,0.204 -2.822,0.208c-0.245,0.066 -0.446,0.213 -0.416,0.506c0.043,0.413 0.298,0.462 0.505,0.414c0.062,-0.015 0.128,-0.003 0.192,-0.004c0.758,-0.014 1.534,0.029 2.25,0.097c-0.171,1.709 0.376,3.827 0.876,4.888c0.666,1.412 1.799,2.948 3.151,4.575c-0.786,-0.525 -1.998,-1.292 -3.139,-1.826c-0.486,-0.228 -1.544,-0.788 -3.974,-1.135c-1.662,-0.238 -4.034,0.041 -4.088,0.049c-0.358,0.054 -0.499,0.355 -0.5,0.563c-0.002,0.345 0.323,0.541 0.561,0.498c0.072,-0.012 0.145,0.002 0.218,0.004c3.037,0.067 5.902,0.879 6.112,0.926c2.065,0.47 2.594,0.586 5.167,1.346c0.877,1.037 1.834,2.109 2.807,3.208c0.144,0.162 0.315,0.347 0.511,0.55c-0.014,0.152 -0.028,0.305 -0.04,0.46c-2.771,6.731 -5.446,11.16 -6.016,12.276c-10.788,21.145 -19.832,26.516 -31.469,42.247c-5.048,6.825 -9.643,14.896 -12.953,22.456c-8.082,-2.671 -15.866,-6.137 -23.235,-10.328Zm60.162,-52.503c-0.482,-0.342 -3.261,-2.313 -6.388,-3.728c-3.257,-1.474 -6.303,-1.973 -6.87,-2.066c-1.671,-0.274 -3.137,-0.227 -3.155,-0.226c-0.294,0.019 -0.539,0.237 -0.541,0.524c-0.004,0.384 0.249,0.531 0.522,0.539c0.075,0.002 0.149,0.011 0.224,0.017c2.99,0.246 7.834,2.05 8.764,2.345c3.568,1.129 5.343,1.738 7.444,2.595Zm-6.333,10.881c-3.667,-2.629 -7.474,-4.727 -10.12,-5.678c-1.17,-0.421 -5.778,-2.177 -10.414,-2.038c-0.603,0.019 -0.837,0.288 -0.865,0.67c-0.028,0.383 0.244,0.718 0.68,0.723c0.067,0.001 0.671,-0.003 2.441,0.34c2.073,0.402 5.26,1.378 7.486,2.173c3.246,1.157 5.904,1.831 10.792,3.81Zm12.983,-20.509c-0.342,-0.251 -2.491,-1.834 -4.486,-2.838c-0.526,-0.265 -1.69,-0.919 -4.315,-1.552c-2.571,-0.62 -5.011,-0.478 -5.016,-0.478c-0.316,0.009 -0.582,0.203 -0.589,0.524c-0.007,0.291 0.226,0.525 0.521,0.541c0.067,0.003 2.343,0.031 7.106,1.588c1.161,0.379 2.735,0.67 6.779,2.215Zm9.487,-26.935c-3.507,-1.014 -4.251,-1.444 -6.966,-1.549c-1.565,-0.06 -3.424,0.314 -3.45,0.318c-0.237,0.041 -0.389,0.225 -0.382,0.496c0.009,0.307 0.293,0.472 0.495,0.38c0.061,-0.002 0.123,-0.007 0.184,-0.01c2.167,-0.108 4.783,0.23 5.336,0.267c2.596,0.174 4.4,0.111 4.783,0.098Zm76.069,69.678c-3.009,2.919 -6.16,5.692 -9.442,8.307c-8.079,-11.286 -19.93,-20.79 -29.328,-29.379c2.544,0.928 5.404,1.866 7.882,2.582c3.637,1.05 7.581,1.763 9.709,2.056c4.036,0.558 10.53,1.234 18.787,0.177c0.367,-0.047 0.729,-0.096 1.087,-0.149c3.081,2.557 6.153,5.238 9.162,8.074c-1.426,1.654 -2.894,3.271 -4.401,4.849c-2.067,0.492 -3.728,1.235 -5.518,2.407c-2.522,1.652 -5.092,5.523 -5.403,5.965c2.843,-2.053 3.415,-2.421 5.352,-3.598c1.089,-0.662 1.624,-1.003 2.113,-1.291Zm-14.581,-5.538c3.517,-1.885 3.518,-1.882 5.158,-2.71c1.323,-0.668 1.878,-1.036 3.673,-1.804c1.985,-0.85 3.183,-1.128 3.207,-1.121c0.191,0.053 0.585,-0.139 0.483,-0.705c-0.084,-0.474 -0.547,-0.504 -0.751,-0.48c-3.047,0.363 -4.739,1.143 -6.379,2.036c-2.001,1.089 -4.269,3.591 -5.391,4.784Z" style="fill:#bcc3c6;"/></svg>
